<?xml version="1.0" standalone="no"?>
<!DOCTYPE svg PUBLIC "-//W3C//DTD SVG 20010904//EN"
 "http://www.w3.org/TR/2001/REC-SVG-20010904/DTD/svg10.dtd">
<svg version="1.0" xmlns="http://www.w3.org/2000/svg"
 width="1024.000000pt" height="1024.000000pt" viewBox="0 0 1024.000000 1024.000000"
 preserveAspectRatio="xMidYMid meet">

<g transform="translate(0.000000,1024.000000) scale(0.100000,-0.100000)"
fill="#000000" stroke="none">
<path d="M3833 7030 c-48 -25 -89 -69 -110 -117 -11 -27 -13 -234 -13 -1141 0
-1225 -3 -1161 63 -1231 61 -64 149 -87 220 -57 18 7 116 63 217 123 102 61
334 196 515 301 869 501 1140 663 1177 703 41 45 68 113 68 173 0 61 -41 140
-87 169 -21 14 -272 159 -558 322 -286 164 -704 404 -930 533 -380 219 -414
236 -465 240 -42 2 -65 -2 -97 -18z"/>
<path d="M7020 5114 c-219 -59 -394 -302 -446 -622 -21 -130 -14 -345 15 -457
58 -218 174 -365 289 -365 91 0 221 99 296 224 41 68 80 182 97 280 15 89 6
237 -17 301 -21 55 -91 135 -118 135 -30 0 -91 -71 -116 -135 -33 -85 -34
-233 -1 -323 26 -73 22 -112 -16 -142 -39 -30 -89 -26 -123 10 -59 63 -91 235
-71 381 47 360 309 533 507 335 157 -158 198 -476 98 -775 -74 -224 -233 -389
-430 -448 -61 -18 -69 -18 -4177 -23 l-167 0 -35 -32 c-63 -58 -54 -154 17
-198 33 -20 44 -20 2194 -20 2118 0 2162 0 2238 20 343 87 600 454 647 925 26
257 -39 518 -176 711 -57 79 -118 133 -203 177 -109 56 -198 69 -302 41z"/>
<path d="M3120 5104 c-86 -23 -157 -63 -231 -132 -183 -170 -267 -403 -256
-712 6 -172 27 -262 92 -395 85 -176 236 -308 395 -344 30 -7 634 -11 1830
-11 1677 0 1783 1 1750 17 -19 9 -64 46 -100 82 -102 103 -171 254 -215 471
-26 129 -17 409 18 541 51 194 128 349 222 446 l52 53 -596 -2 -596 -3 -85
-51 c-47 -28 -179 -105 -295 -171 -115 -66 -387 -223 -604 -348 -216 -125
-419 -236 -450 -247 -85 -30 -198 -22 -284 20 -82 41 -164 127 -208 220 -29
60 -34 79 -39 187 -4 66 -6 182 -6 258 l1 137 -170 -1 c-115 0 -188 -5 -225
-15z"/>
</g>
</svg>
